# xmcd
#
# Track frame offsets:
#	150
#	13301
#	26051
#	38643
#	51318
#	61419
#	74319
#	88915
#	110815
#	123565
#	135865
#	149440
#	162115
#	175390
#	189340
#	204565
#
# Disc length: 2915
#
# Revision: 1
# Processed by: cddbd v1.5.1PL0 Copyright (c) Steve Scherf et al.
# Submitted via: CDnGo 1.95
# Normalized: r0:DSETVAR1
#
DISCID=ec0b6110
DTITLE=Various Artist - Blues Sunset CD1
DYEAR=2003
DGENRE=Blues
TTITLE0=Ella Fitzgerald - I'm Just A Lucky So And So
TTITLE1=Dinah Washington - Joy Juice
TTITLE2=Big Joe Williams - Please Don't Go
TTITLE3=Ray Charles - Blues Before Sunrise
TTITLE4=Muddy Waters - Mean Red Spider
TTITLE5=Robert Petway - Catfish Blues
TTITLE6=Helen Humes - Blue And Sentimental
TTITLE7=B.B. King - The Thrill Is Gone
TTITLE8=Yank Rachell - Up North Blues
TTITLE9=Myra Taylor - Booted
TTITLE10=Frank Edwards - Three Women Blues
TTITLE11=John Lee Hooker - Hobo Blues
TTITLE12=Vivian Greene - Red Light
TTITLE13=Eddie Winson and His Orchestra - King For A Day Blues
TTITLE14=Sonny Boy Williams - Love Me Baby
TTITLE15=Billie Holiday - I Love My Man (Billie's Blues)
EXTD=
EXTT0=
EXTT1=
EXTT2=
EXTT3=
EXTT4=
EXTT5=
EXTT6=
EXTT7=
EXTT8=
EXTT9=
EXTT10=
EXTT11=
EXTT12=
EXTT13=
EXTT14=
EXTT15=
PLAYORDER=
